<svg xmlns="http://www.w3.org/2000/svg" xmlns:xlink="http://www.w3.org/1999/xlink" width="500" zoomAndPan="magnify" viewBox="0 0 375 374.999991" height="500" preserveAspectRatio="xMidYMid meet" version="1.0"><path fill="#ffffff" d="M 187.5 375 C 187.5 375 328.125 241.734375 328.125 140.625 C 328.125 138.324219 328.070312 136.023438 327.957031 133.726562 C 327.84375 131.425781 327.671875 129.132812 327.449219 126.839844 C 327.222656 124.550781 326.941406 122.265625 326.601562 119.992188 C 326.265625 117.714844 325.871094 115.449219 325.421875 113.191406 C 324.972656 110.933594 324.46875 108.6875 323.910156 106.457031 C 323.351562 104.222656 322.738281 102.007812 322.070312 99.804688 C 321.402344 97.601562 320.679688 95.417969 319.90625 93.25 C 319.128906 91.082031 318.300781 88.9375 317.421875 86.808594 C 316.539062 84.683594 315.609375 82.582031 314.625 80.5 C 313.640625 78.417969 312.605469 76.363281 311.519531 74.335938 C 310.433594 72.304688 309.300781 70.304688 308.117188 68.328125 C 306.933594 66.355469 305.703125 64.410156 304.425781 62.496094 C 303.148438 60.585938 301.820312 58.703125 300.449219 56.855469 C 299.078125 55.007812 297.664062 53.191406 296.203125 51.414062 C 294.746094 49.632812 293.242188 47.890625 291.695312 46.1875 C 290.152344 44.480469 288.5625 42.816406 286.9375 41.1875 C 285.308594 39.5625 283.644531 37.972656 281.9375 36.429688 C 280.234375 34.882812 278.492188 33.378906 276.710938 31.921875 C 274.933594 30.460938 273.117188 29.042969 271.269531 27.675781 C 269.421875 26.304688 267.539062 24.976562 265.628906 23.699219 C 263.714844 22.421875 261.769531 21.191406 259.796875 20.007812 C 257.820312 18.824219 255.820312 17.691406 253.789062 16.605469 C 251.761719 15.519531 249.707031 14.484375 247.625 13.5 C 245.542969 12.515625 243.441406 11.585938 241.316406 10.703125 C 239.1875 9.824219 237.042969 8.996094 234.875 8.21875 C 232.707031 7.445312 230.523438 6.722656 228.320312 6.054688 C 226.117188 5.386719 223.902344 4.773438 221.667969 4.214844 C 219.4375 3.65625 217.191406 3.152344 214.933594 2.703125 C 212.675781 2.253906 210.410156 1.859375 208.132812 1.523438 C 205.855469 1.183594 203.574219 0.902344 201.285156 0.675781 C 198.992188 0.453125 196.699219 0.28125 194.398438 0.167969 C 192.101562 0.0546875 189.800781 0 187.5 0 C 185.199219 0 182.898438 0.0546875 180.601562 0.167969 C 178.300781 0.28125 176.007812 0.453125 173.714844 0.675781 C 171.425781 0.902344 169.140625 1.183594 166.867188 1.523438 C 164.589844 1.859375 162.324219 2.253906 160.066406 2.703125 C 157.808594 3.152344 155.5625 3.65625 153.332031 4.214844 C 151.097656 4.773438 148.882812 5.386719 146.679688 6.054688 C 144.476562 6.722656 142.292969 7.445312 140.125 8.21875 C 137.957031 8.996094 135.8125 9.824219 133.683594 10.703125 C 131.558594 11.585938 129.457031 12.515625 127.375 13.5 C 125.292969 14.484375 123.238281 15.519531 121.210938 16.605469 C 119.179688 17.691406 117.179688 18.824219 115.203125 20.007812 C 113.230469 21.191406 111.285156 22.421875 109.371094 23.699219 C 107.460938 24.976562 105.578125 26.304688 103.730469 27.675781 C 101.882812 29.042969 100.066406 30.460938 98.289062 31.921875 C 96.507812 33.378906 94.765625 34.882812 93.0625 36.429688 C 91.355469 37.972656 89.691406 39.5625 88.0625 41.1875 C 86.4375 42.816406 84.847656 44.480469 83.304688 46.1875 C 81.757812 47.890625 80.253906 49.632812 78.796875 51.414062 C 77.335938 53.191406 75.917969 55.007812 74.550781 56.855469 C 73.179688 58.703125 71.851562 60.585938 70.574219 62.496094 C 69.296875 64.410156 68.066406 66.355469 66.882812 68.328125 C 65.699219 70.304688 64.566406 72.304688 63.480469 74.335938 C 62.394531 76.363281 61.359375 78.417969 60.375 80.5 C 59.390625 82.582031 58.460938 84.683594 57.578125 86.808594 C 56.699219 88.9375 55.871094 91.082031 55.09375 93.25 C 54.320312 95.417969 53.597656 97.601562 52.929688 99.804688 C 52.261719 102.007812 51.648438 104.222656 51.089844 106.457031 C 50.53125 108.6875 50.027344 110.933594 49.578125 113.191406 C 49.128906 115.449219 48.734375 117.714844 48.398438 119.992188 C 48.058594 122.265625 47.777344 124.550781 47.550781 126.839844 C 47.328125 129.132812 47.15625 131.425781 47.042969 133.726562 C 46.929688 136.023438 46.875 138.324219 46.875 140.625 C 46.875 241.734375 187.5 375 187.5 375 M 187.5 210.9375 C 186.347656 210.9375 185.199219 210.910156 184.050781 210.851562 C 182.902344 210.796875 181.753906 210.710938 180.609375 210.597656 C 179.464844 210.484375 178.320312 210.34375 177.183594 210.175781 C 176.042969 210.007812 174.910156 209.8125 173.78125 209.585938 C 172.652344 209.363281 171.53125 209.109375 170.414062 208.832031 C 169.300781 208.550781 168.191406 208.242188 167.089844 207.910156 C 165.988281 207.574219 164.894531 207.214844 163.8125 206.828125 C 162.730469 206.441406 161.65625 206.027344 160.59375 205.585938 C 159.53125 205.144531 158.476562 204.679688 157.4375 204.1875 C 156.398438 203.695312 155.371094 203.175781 154.355469 202.636719 C 153.339844 202.09375 152.339844 201.527344 151.351562 200.933594 C 150.363281 200.34375 149.394531 199.726562 148.4375 199.085938 C 147.480469 198.449219 146.539062 197.785156 145.613281 197.101562 C 144.691406 196.414062 143.785156 195.707031 142.894531 194.976562 C 142.003906 194.246094 141.132812 193.496094 140.28125 192.722656 C 139.429688 191.949219 138.59375 191.15625 137.78125 190.34375 C 136.96875 189.53125 136.175781 188.695312 135.402344 187.84375 C 134.628906 186.992188 133.878906 186.121094 133.148438 185.230469 C 132.417969 184.339844 131.710938 183.433594 131.023438 182.511719 C 130.339844 181.585938 129.675781 180.644531 129.039062 179.6875 C 128.398438 178.730469 127.78125 177.761719 127.191406 176.773438 C 126.597656 175.785156 126.03125 174.785156 125.488281 173.769531 C 124.949219 172.753906 124.429688 171.726562 123.9375 170.6875 C 123.445312 169.648438 122.980469 168.59375 122.539062 167.53125 C 122.097656 166.46875 121.683594 165.394531 121.296875 164.3125 C 120.910156 163.230469 120.550781 162.136719 120.214844 161.035156 C 119.882812 159.933594 119.574219 158.824219 119.292969 157.710938 C 119.015625 156.59375 118.761719 155.472656 118.539062 154.34375 C 118.3125 153.214844 118.117188 152.082031 117.949219 150.941406 C 117.78125 149.804688 117.640625 148.660156 117.527344 147.515625 C 117.414062 146.371094 117.328125 145.222656 117.273438 144.074219 C 117.214844 142.925781 117.1875 141.777344 117.1875 140.625 C 117.1875 139.472656 117.214844 138.324219 117.273438 137.175781 C 117.328125 136.027344 117.414062 134.878906 117.527344 133.734375 C 117.640625 132.589844 117.78125 131.445312 117.949219 130.308594 C 118.117188 129.167969 118.3125 128.035156 118.539062 126.90625 C 118.761719 125.777344 119.015625 124.65625 119.292969 123.539062 C 119.574219 122.425781 119.882812 121.316406 120.214844 120.214844 C 120.550781 119.113281 120.910156 118.019531 121.296875 116.9375 C 121.683594 115.855469 122.097656 114.78125 122.539062 113.71875 C 122.980469 112.65625 123.445312 111.601562 123.9375 110.5625 C 124.429688 109.523438 124.949219 108.496094 125.488281 107.480469 C 126.03125 106.464844 126.597656 105.464844 127.191406 104.476562 C 127.78125 103.488281 128.398438 102.519531 129.039062 101.5625 C 129.675781 100.605469 130.339844 99.664062 131.023438 98.738281 C 131.710938 97.816406 132.417969 96.910156 133.148438 96.019531 C 133.878906 95.128906 134.628906 94.257812 135.402344 93.40625 C 136.175781 92.554688 136.96875 91.71875 137.78125 90.90625 C 138.59375 90.09375 139.429688 89.300781 140.28125 88.527344 C 141.132812 87.753906 142.003906 87.003906 142.894531 86.273438 C 143.785156 85.542969 144.691406 84.835938 145.613281 84.148438 C 146.539062 83.464844 147.480469 82.800781 148.4375 82.164062 C 149.394531 81.523438 150.363281 80.90625 151.351562 80.316406 C 152.339844 79.722656 153.339844 79.15625 154.355469 78.613281 C 155.371094 78.074219 156.398438 77.554688 157.4375 77.0625 C 158.476562 76.570312 159.53125 76.105469 160.59375 75.664062 C 161.65625 75.222656 162.730469 74.808594 163.8125 74.421875 C 164.894531 74.035156 165.988281 73.675781 167.089844 73.339844 C 168.191406 73.007812 169.300781 72.699219 170.414062 72.417969 C 171.53125 72.140625 172.652344 71.886719 173.78125 71.664062 C 174.910156 71.4375 176.042969 71.242188 177.183594 71.074219 C 178.320312 70.90625 179.464844 70.765625 180.609375 70.652344 C 181.753906 70.539062 182.902344 70.453125 184.050781 70.398438 C 185.199219 70.339844 186.347656 70.3125 187.5 70.3125 C 188.652344 70.3125 189.800781 70.339844 190.949219 70.398438 C 192.097656 70.453125 193.246094 70.539062 194.390625 70.652344 C 195.535156 70.765625 196.679688 70.90625 197.816406 71.074219 C 198.957031 71.242188 200.089844 71.4375 201.21875 71.664062 C 202.347656 71.886719 203.46875 72.140625 204.585938 72.417969 C 205.699219 72.699219 206.808594 73.007812 207.910156 73.339844 C 209.011719 73.675781 210.105469 74.035156 211.1875 74.421875 C 212.269531 74.808594 213.34375 75.222656 214.40625 75.664062 C 215.46875 76.105469 216.523438 76.570312 217.5625 77.0625 C 218.601562 77.554688 219.628906 78.074219 220.644531 78.613281 C 221.660156 79.15625 222.660156 79.722656 223.648438 80.316406 C 224.636719 80.90625 225.605469 81.523438 226.5625 82.164062 C 227.519531 82.800781 228.460938 83.464844 229.386719 84.148438 C 230.308594 84.835938 231.214844 85.542969 232.105469 86.273438 C 232.996094 87.003906 233.867188 87.753906 234.71875 88.527344 C 235.570312 89.300781 236.40625 90.09375 237.21875 90.90625 C 238.03125 91.71875 238.824219 92.554688 239.597656 93.40625 C 240.371094 94.257812 241.121094 95.128906 241.851562 96.019531 C 242.582031 96.910156 243.289062 97.816406 243.976562 98.738281 C 244.660156 99.664062 245.324219 100.605469 245.960938 101.5625 C 246.601562 102.519531 247.21875 103.488281 247.808594 104.476562 C 248.402344 105.464844 248.96875 106.464844 249.511719 107.480469 C 250.050781 108.496094 250.570312 109.523438 251.0625 110.5625 C 251.554688 111.601562 252.019531 112.65625 252.460938 113.71875 C 252.902344 114.78125 253.316406 115.855469 253.703125 116.9375 C 254.089844 118.019531 254.449219 119.113281 254.785156 120.214844 C 255.117188 121.316406 255.425781 122.425781 255.707031 123.539062 C 255.984375 124.65625 256.238281 125.777344 256.460938 126.90625 C 256.6875 128.035156 256.882812 129.167969 257.050781 130.308594 C 257.21875 131.445312 257.359375 132.589844 257.472656 133.734375 C 257.585938 134.878906 257.671875 136.027344 257.726562 137.175781 C 257.785156 138.324219 257.8125 139.472656 257.8125 140.625 C 257.8125 141.777344 257.785156 142.925781 257.726562 144.074219 C 257.671875 145.222656 257.585938 146.371094 257.472656 147.515625 C 257.359375 148.660156 257.21875 149.804688 257.050781 150.941406 C 256.882812 152.082031 256.6875 153.214844 256.460938 154.34375 C 256.238281 155.472656 255.984375 156.59375 255.707031 157.710938 C 255.425781 158.824219 255.117188 159.933594 254.785156 161.035156 C 254.449219 162.136719 254.089844 163.230469 253.703125 164.3125 C 253.316406 165.394531 252.902344 166.46875 252.460938 167.53125 C 252.019531 168.59375 251.554688 169.648438 251.0625 170.6875 C 250.570312 171.726562 250.050781 172.753906 249.511719 173.769531 C 248.96875 174.785156 248.402344 175.785156 247.808594 176.773438 C 247.21875 177.761719 246.601562 178.730469 245.960938 179.6875 C 245.324219 180.644531 244.660156 181.585938 243.976562 182.511719 C 243.289062 183.433594 242.582031 184.339844 241.851562 185.230469 C 241.121094 186.121094 240.371094 186.992188 239.597656 187.84375 C 238.824219 188.695312 238.03125 189.53125 237.21875 190.34375 C 236.40625 191.15625 235.570312 191.949219 234.71875 192.722656 C 233.867188 193.496094 232.996094 194.246094 232.105469 194.976562 C 231.214844 195.707031 230.308594 196.414062 229.386719 197.101562 C 228.460938 197.785156 227.519531 198.449219 226.5625 199.085938 C 225.605469 199.726562 224.636719 200.34375 223.648438 200.933594 C 222.660156 201.527344 221.660156 202.09375 220.644531 202.636719 C 219.628906 203.175781 218.601562 203.695312 217.5625 204.1875 C 216.523438 204.679688 215.46875 205.144531 214.40625 205.585938 C 213.34375 206.027344 212.269531 206.441406 211.1875 206.828125 C 210.105469 207.214844 209.011719 207.574219 207.910156 207.910156 C 206.808594 208.242188 205.699219 208.550781 204.585938 208.832031 C 203.46875 209.109375 202.347656 209.363281 201.21875 209.585938 C 200.089844 209.8125 198.957031 210.007812 197.816406 210.175781 C 196.679688 210.34375 195.535156 210.484375 194.390625 210.597656 C 193.246094 210.710938 192.097656 210.796875 190.949219 210.851562 C 189.800781 210.910156 188.652344 210.9375 187.5 210.9375 " fill-opacity="1" fill-rule="nonzero"/></svg>